<svg width="88" height="88" viewBox="0 0 88 88" fill="none" xmlns="http://www.w3.org/2000/svg" > 
<g clip-path="url(#clip0_1021_1815)">
<path d="M27.9685 8.53223C31.7259 13.1883 39.2238 11.1792 40.1498 5.26824C40.8379 0.876291 47.1621 0.876297 47.8502 5.26823C48.7762 11.1792 56.2741 13.1883 60.0315 8.53223C62.8234 5.07272 68.3003 8.23484 66.7002 12.3824C64.5467 17.9645 70.0356 23.4533 75.6176 21.2998C79.7652 19.6997 82.9273 25.1766 79.4678 27.9685C74.8117 31.7259 76.8208 39.2238 82.7318 40.1498C87.1237 40.8379 87.1237 47.1621 82.7318 47.8502C76.8208 48.7762 74.8117 56.2741 79.4678 60.0315C82.9273 62.8234 79.7652 68.3003 75.6176 66.7002C70.0356 64.5467 64.5467 70.0356 66.7002 75.6176C68.3003 79.7652 62.8234 82.9273 60.0315 79.4678C56.2741 74.8117 48.7762 76.8208 47.8502 82.7318C47.1621 87.1237 40.8379 87.1237 40.1498 82.7318C39.2238 76.8208 31.7259 74.8117 27.9685 79.4678C25.1766 82.9273 19.6997 79.7652 21.2998 75.6176C23.4533 70.0356 17.9644 64.5467 12.3824 66.7002C8.23484 68.3003 5.07272 62.8234 8.53223 60.0315C13.1883 56.2741 11.1792 48.7762 5.26824 47.8502C0.876295 47.1621 0.876293 40.8379 5.26824 40.1498C11.1792 39.2238 13.1883 31.7259 8.53223 27.9685C5.07272 25.1766 8.23484 19.6997 12.3824 21.2998C17.9644 23.4533 23.4533 17.9644 21.2998 12.3824C19.6997 8.23484 25.1766 5.07272 27.9685 8.53223Z" fill="#E6BB63" stroke="#933333" stroke-width="3"/>
<rect x="23.5469" y="31.0137" width="40" height="6" rx="3" fill="#933333"/>
<rect x="23.5469" y="41.0137" width="40" height="6" rx="3" fill="#933333"/>
<rect x="23.5469" y="51.0137" width="40" height="6" rx="3" fill="#933333"/>
</g>
<defs>
<clipPath id="clip0_1021_1815">
<rect width="88" height="88" fill="white"/>
</clipPath>
</defs>
</svg>
